Coordinates
version=1
nRows=32
nColumns=12
inDegrees=yes

Units are S.I. units (second, meters, Newtons, ...)
Angles are in degrees

endheader
time	SC_y	SC_z	SC_x	AC_y	AC_z	AC_x	GH_y	GH_z	GH_yy	EL_x	PS_y
       0.0              -58.89          13.93          27.39          42.29          2.626         -19.75           74.9         -3.416         -112.9          100.9          72.84
   0.01622              -58.88          13.93           27.4          42.29          2.626         -19.75           74.9          -3.41         -112.9          100.9          72.85
   0.03245              -58.88          13.93          27.41          42.29          2.625         -19.74          74.89         -3.403         -112.9          100.9          72.86
   0.04867              -58.87          13.93          27.42          42.29          2.624         -19.74          74.89         -3.395         -112.9          100.9          72.86
    0.0649              -58.87          13.93          27.43          42.29          2.623         -19.74          74.88         -3.387         -112.9          100.9          72.87
   0.08112              -58.86          13.93          27.44          42.29          2.622         -19.73          74.88         -3.379         -112.9          100.9          72.88
   0.09734              -58.86          13.93          27.45          42.29          2.621         -19.73          74.87          -3.37         -112.9          100.8          72.89
    0.1136              -58.85          13.93          27.46          42.29           2.62         -19.72          74.86          -3.36         -113.0          100.8          72.89
    0.1298              -58.85          13.93          27.47          42.29          2.619         -19.71          74.86          -3.35         -113.0          100.8           72.9
     0.146              -58.84          13.94          27.48          42.29          2.618         -19.71          74.85         -3.339         -113.0          100.8          72.91
    0.1622              -58.83          13.94           27.5          42.29          2.616          -19.7          74.84         -3.327         -113.0          100.8          72.92
    0.1785              -58.83          13.94          27.52          42.29          2.615         -19.69          74.84         -3.314         -113.0          100.7          72.94
    0.1947              -58.82          13.94          27.53          42.29          2.613         -19.69          74.83           -3.3         -113.0          100.7          72.95
    0.2109              -58.81          13.94          27.55          42.28          2.612         -19.68          74.82         -3.285         -113.0          100.7          72.96
    0.2271               -58.8          13.94          27.57          42.28           2.61         -19.67          74.81         -3.269         -113.0          100.7          72.98
    0.2434              -58.79          13.94          27.59          42.28          2.608         -19.66           74.8         -3.251         -113.0          100.6          72.99
    0.2596              -58.78          13.94          27.62          42.28          2.606         -19.65          74.78         -3.232         -113.0          100.6          73.01
    0.2758              -58.77          13.94          27.64          42.28          2.603         -19.64          74.77         -3.212         -113.1          100.6          73.03
     0.292              -58.76          13.95          27.67          42.28          2.601         -19.63          74.76         -3.189         -113.1          100.5          73.05
    0.3083              -58.74          13.95           27.7          42.28          2.598         -19.61          74.74         -3.164         -113.1          100.5          73.07
    0.3245              -58.73          13.95          27.73          42.28          2.595          -19.6          74.73         -3.137         -113.1          100.4           73.1
    0.3407              -58.71          13.95          27.77          42.28          2.592         -19.58          74.71         -3.107         -113.1          100.4          73.13
    0.3569              -58.69          13.96          27.81          42.28          2.588         -19.56          74.69         -3.073         -113.2          100.3          73.16
    0.3732              -58.67          13.96          27.85          42.28          2.584         -19.54          74.66         -3.037         -113.2          100.2          73.19
    0.3894              -58.65          13.96           27.9          42.28          2.579         -19.52          74.64         -2.996         -113.2          100.2          73.23
    0.4056              -58.62          13.96          27.96          42.27          2.574          -19.5          74.61          -2.95         -113.2          100.1          73.27
    0.4218              -58.59          13.97          28.02          42.27          2.568         -19.47          74.58         -2.899         -113.3          99.99          73.31
     0.438              -58.56          13.97          28.09          42.27          2.562         -19.44          74.54         -2.842         -113.3          99.89          73.37
    0.4543              -58.52          13.98          28.17          42.27          2.555          -19.4           74.5         -2.777         -113.4          99.77          73.43
    0.4705              -58.48          13.98          28.26          42.27          2.546         -19.36          74.45         -2.703         -113.4          99.63          73.49
    0.4867              -58.43          13.99          28.37          42.27          2.537         -19.32           74.4         -2.619         -113.5          99.48          73.57
    0.5029              -58.38           14.0          28.48          42.26          2.526         -19.26          74.34         -2.522         -113.5          99.31          73.66
